<svg version="1.0" xmlns="http://www.w3.org/2000/svg" width="511px" height="383px" viewBox="0 0 5110 3830" preserveAspectRatio="xMidYMid meet">
<g id="layer101" fill="#f9071b" stroke="none">
<path d="M2886 1265 c-110 -28 -192 -80 -307 -195 -104 -104 -123 -130 -309 -422 -132 -208 -289 -331 -423 -332 -154 -1 -312 146 -449 418 -143 285 -346 461 -580 502 -294 52 -586 -133 -768 -488 -40 -76 -50 -106 -50 -145 0 -89 63 -153 151 -153 70 0 105 29 164 138 158 293 343 404 531 318 104 -48 186 -142 279 -321 87 -167 160 -271 260 -370 173 -171 346 -237 544 -206 243 38 453 216 661 561 85 140 155 233 226 301 64 60 100 82 151 93 110 24 260 -104 414 -356 91 -147 199 -255 310 -308 164 -78 317 -78 477 1 101 50 201 140 268 242 135 208 237 232 325 77 19 -33 42 -74 51 -90 26 -44 74 -70 132 -70 88 0 150 62 150 150 0 112 -157 322 -289 386 -55 27 -69 29 -170 29 -105 0 -114 -2 -178 -33 -92 -45 -184 -134 -268 -258 -97 -142 -181 -195 -287 -180 -98 13 -165 69 -249 207 -200 330 -409 501 -630 514 -50 3 -99 -1 -137 -10z"/>
</g>
<g id="layer102" fill="#f99e07" stroke="none">
<path d="M82 2849 c-39 -25 -72 -85 -72 -130 0 -56 30 -96 178 -241 359 -350 764 -618 1097 -726 179 -59 236 -67 440 -66 241 1 400 30 710 131 245 79 433 158 1116 466 563 253 734 302 929 263 154 -31 274 -111 329 -219 73 -142 273 -117 296 36 9 57 -7 93 -80 184 -151 190 -380 306 -630 320 -228 12 -418 -49 -1080 -349 -639 -290 -906 -393 -1223 -473 -378 -95 -603 -68 -959 114 -239 122 -482 303 -733 547 -80 78 -155 146 -167 153 -36 18 -114 13 -151 -10z"/>
</g>
<g id="layer103" fill="#bef907" stroke="none">
<path d="M110 3812 c-108 -58 -108 -220 0 -275 33 -16 167 -17 2462 -15 l2427 3 27 21 c51 38 68 70 68 129 0 59 -17 91 -68 129 l-27 21 -2427 3 c-2349 2 -2428 2 -2462 -16z"/>
</g>
</svg>
