<?xml version="1.0" encoding="utf-8"?>
<!-- Generator: Adobe Illustrator 24.1.1, SVG Export Plug-In . SVG Version: 6.00 Build 0)  -->
<svg version="1.1" id="Calque_1" xmlns="http://www.w3.org/2000/svg" xmlns:xlink="http://www.w3.org/1999/xlink" x="0px" y="0px"
	 viewBox="0 0 254.7 191.5" style="enable-background:new 0 0 254.7 191.5;" xml:space="preserve">
<style type="text/css">
	.st0{fill:#F9071B;}
	.st1{fill:#F99E07;}
	.st2{fill:#BEF907;}
</style>
<g id="layer101">
	<path class="st0" d="M144.3,63.2c-5.5-1.4-9.6-4-15.4-9.8c-5.2-5.2-6.2-6.5-15.5-21.1c-6.6-10.4-14.5-16.6-21.2-16.6
		c-7.7-0.1-15.6,7.3-22.5,20.9c-7.2,14.3-17.3,23.1-29,25.1c-14.7,2.6-29.3-6.7-38.4-24.4C0.5,33.5,0,32,0,30.1
		c0-4.5,3.2-7.7,7.6-7.7c3.5,0,5.3,1.5,8.2,6.9C23.7,44,32.9,49.5,42.3,45.2c5.2-2.4,9.3-7.1,14-16.1c4.4-8.4,8-13.6,13-18.5
		C77.9,2.1,86.6-1.2,96.5,0.4c12.2,1.9,22.7,10.8,33.1,28.1c4.3,7,7.8,11.7,11.3,15.1c3.2,3,5,4.1,7.6,4.7c5.5,1.2,13-5.2,20.7-17.8
		c4.6-7.4,10-12.8,15.5-15.4c8.2-3.9,15.9-3.9,23.9,0.1c5.1,2.5,10.1,7,13.4,12.1c6.8,10.4,11.9,11.6,16.3,3.9
		c1-1.7,2.1-3.7,2.6-4.5c1.3-2.2,3.7-3.5,6.6-3.5c4.4,0,7.5,3.1,7.5,7.5c0,5.6-7.9,16.1-14.5,19.3c-2.8,1.4-3.5,1.5-8.5,1.5
		c-5.3,0-5.7-0.1-8.9-1.7c-4.6-2.3-9.2-6.7-13.4-12.9c-4.9-7.1-9.1-9.8-14.4-9c-4.9,0.7-8.3,3.5-12.5,10.4
		c-10,16.5-20.5,25.1-31.5,25.7C148.7,63.8,146.2,63.6,144.3,63.2z"/>
</g>
<g id="layer102">
	<path class="st1" d="M4.1,142.4c-2-1.3-3.6-4.3-3.6-6.5c0-2.8,1.5-4.8,8.9-12.1c18-17.5,38.2-30.9,54.9-36.3c9-3,11.8-3.4,22-3.3
		c12.1,0.1,20,1.5,35.5,6.6c12.3,4,21.7,7.9,55.8,23.3c28.2,12.7,36.7,15.1,46.5,13.2c7.7-1.6,13.7-5.6,16.5-11
		c3.7-7.1,13.7-5.9,14.8,1.8c0.5,2.9-0.4,4.7-4,9.2c-7.6,9.5-19,15.3-31.5,16c-11.4,0.6-20.9-2.5-54-17.5
		c-32-14.5-45.3-19.7-61.2-23.7c-18.9-4.8-30.2-3.4-48,5.7C44.7,114,32.6,123,20,135.2c-4,3.9-7.8,7.3-8.4,7.7
		C9.9,143.8,6,143.5,4.1,142.4z"/>
</g>
<g id="layer103">
	<path class="st2" d="M5.5,190.5c-5.4-2.9-5.4-11,0-13.8c1.7-0.8,8.4-0.9,123.1-0.8l121.4,0.2l1.4,1.1c2.6,1.9,3.4,3.5,3.4,6.5
		s-0.9,4.6-3.4,6.5l-1.4,1.1l-121.4,0.2C11.2,191.4,7.2,191.4,5.5,190.5z"/>
</g>
</svg>
